<svg xmlns="http://www.w3.org/2000/svg" viewBox="0 0 800 600" role="img" aria-labelledby="title desc">
  <title id="title">Television product artwork</title>
  <desc id="desc">Illustrated large QLED television with vivid landscape.</desc>
  <defs>
    <linearGradient id="framebg" x1="0%" y1="0%" x2="100%" y2="100%">
      <stop offset="0%" stop-color="#020617"/>
      <stop offset="100%" stop-color="#172554"/>
    </linearGradient>
    <linearGradient id="screen" x1="0%" y1="0%" x2="100%" y2="100%">
      <stop offset="0%" stop-color="#38bdf8"/>
      <stop offset="50%" stop-color="#60a5fa"/>
      <stop offset="100%" stop-color="#34d399"/>
    </linearGradient>
  </defs>
  <rect width="800" height="600" fill="url(#framebg)"/>
  <circle cx="140" cy="130" r="95" fill="#22d3ee" opacity=".12"/>
  <circle cx="650" cy="470" r="150" fill="#34d399" opacity=".12"/>
  <rect x="110" y="95" width="580" height="340" rx="18" fill="#020617" stroke="#cbd5e1" stroke-opacity=".28"/>
  <rect x="130" y="115" width="540" height="300" rx="10" fill="url(#screen)"/>
  <path d="M130 325c60-30 106-32 162-6 52 24 102 28 142-8 54-49 96-70 236-42v146H130z" fill="#0f172a" opacity=".55"/>
  <rect x="360" y="438" width="80" height="18" rx="9" fill="#94a3b8"/>
  <path d="M300 492h200l26 24H274z" fill="#475569"/>
  <text x="60" y="560" fill="#e2e8f0" font-family="Arial, sans-serif" font-size="40" font-weight="700">VisionMax QLED 65</text>
</svg>
